<?xml version="1.0" encoding="utf-8"?>
<!-- Svg Vector Icons : http://www.onlinewebfonts.com/icon -->
<!DOCTYPE svg PUBLIC "-//W3C//DTD SVG 1.1//EN" "http://www.w3.org/Graphics/SVG/1.1/DTD/svg11.dtd">
<svg version="1.1" xmlns="http://www.w3.org/2000/svg" xmlns:xlink="http://www.w3.org/1999/xlink" x="0px" y="0px" viewBox="0 0 1000 1000" enable-background="new 0 0 1000 1000" xml:space="preserve">
<metadata> Svg Vector Icons : http://www.onlinewebfonts.com/icon </metadata>
<g><g transform="translate(0.000000,384.000000) scale(0.100000,-0.100000)">
        <path d="M2863.8,3686.1c-195.3-82.2-254.4-128.5-529.3-411.1c-313.5-318.6-380.3-454.8-380.3-776c2.6-411.1-74.5-316,1706.1-2099.2l1557.1-1562.2L3657.7-2722.1C1874.6-4507.9,1954.2-4407.7,1954.2-4823.9c0-334,74.5-477.9,431.7-827.4c346.9-341.7,472.8-406,801.7-406c421.4,0,221-172.2,2600.3,2204.6c2425.6,2420.4,2256,2220,2256,2690.2s167,269.8-2243.1,2679.9c-2340.7,2338.2-2184,2204.6-2574.6,2220C3041.1,3745.1,2984.6,3737.4,2863.8,3686.1z"
            fill="#ffffff"/></g></g>
</svg>